<svg xmlns="http://www.w3.org/2000/svg" xmlns:xlink="http://www.w3.org/1999/xlink" width="136" height="1002" preserveAspectRatio="xMidYMid meet" version="1.1" viewBox="0 0 136 1002" style="overflow:hidden;position:relative;left:-.4375px;top:-.846375px"><desc style="-webkit-tap-highlight-color:transparent">Created with Raphaël 2.3.0</desc><defs style="-webkit-tap-highlight-color:transparent"><path id="raphael-marker-block" stroke-linecap="round" d="M5,0 0,2.5 5,5z" style="-webkit-tap-highlight-color:transparent"/><marker id="raphael-marker-endblock33-objtvryv" markerHeight="3" markerWidth="3" orient="auto" refX="1.5" refY="1.5" style="-webkit-tap-highlight-color:transparent"><use fill="#8DA1AC" stroke="none" stroke-width="1.667" transform="rotate(180 1.5 1.5) scale(0.6,0.6)" xlink:href="#raphael-marker-block" style="-webkit-tap-highlight-color:transparent"/></marker><marker id="raphael-marker-endblock33-obj03ki8" markerHeight="3" markerWidth="3" orient="auto" refX="1.5" refY="1.5" style="-webkit-tap-highlight-color:transparent"><use fill="#8DA1AC" stroke="none" stroke-width="1.667" transform="rotate(180 1.5 1.5) scale(0.6,0.6)" xlink:href="#raphael-marker-block" style="-webkit-tap-highlight-color:transparent"/></marker><marker id="raphael-marker-endblock33-obj6y5q8" markerHeight="3" markerWidth="3" orient="auto" refX="1.5" refY="1.5" style="-webkit-tap-highlight-color:transparent"><use fill="#8DA1AC" stroke="none" stroke-width="1.667" transform="rotate(180 1.5 1.5) scale(0.6,0.6)" xlink:href="#raphael-marker-block" style="-webkit-tap-highlight-color:transparent"/></marker><marker id="raphael-marker-endblock33-objuh6wd" markerHeight="3" markerWidth="3" orient="auto" refX="1.5" refY="1.5" style="-webkit-tap-highlight-color:transparent"><use fill="#8DA1AC" stroke="none" stroke-width="1.667" transform="rotate(180 1.5 1.5) scale(0.6,0.6)" xlink:href="#raphael-marker-block" style="-webkit-tap-highlight-color:transparent"/></marker><marker id="raphael-marker-endblock33-objw9t1g" markerHeight="3" markerWidth="3" orient="auto" refX="1.5" refY="1.5" style="-webkit-tap-highlight-color:transparent"><use fill="#8DA1AC" stroke="none" stroke-width="1.667" transform="rotate(180 1.5 1.5) scale(0.6,0.6)" xlink:href="#raphael-marker-block" style="-webkit-tap-highlight-color:transparent"/></marker><marker id="raphael-marker-endblock33-objkhn0d" markerHeight="3" markerWidth="3" orient="auto" refX="1.5" refY="1.5" style="-webkit-tap-highlight-color:transparent"><use fill="#8DA1AC" stroke="none" stroke-width="1.667" transform="rotate(180 1.5 1.5) scale(0.6,0.6)" xlink:href="#raphael-marker-block" style="-webkit-tap-highlight-color:transparent"/></marker><marker id="raphael-marker-endblock33-objhgby9" markerHeight="3" markerWidth="3" orient="auto" refX="1.5" refY="1.5" style="-webkit-tap-highlight-color:transparent"><use fill="#8DA1AC" stroke="none" stroke-width="1.667" transform="rotate(180 1.5 1.5) scale(0.6,0.6)" xlink:href="#raphael-marker-block" style="-webkit-tap-highlight-color:transparent"/></marker><marker id="raphael-marker-endblock33-obj7bmu4" markerHeight="3" markerWidth="3" orient="auto" refX="1.5" refY="1.5" style="-webkit-tap-highlight-color:transparent"><use fill="#8DA1AC" stroke="none" stroke-width="1.667" transform="rotate(180 1.5 1.5) scale(0.6,0.6)" xlink:href="#raphael-marker-block" style="-webkit-tap-highlight-color:transparent"/></marker><marker id="raphael-marker-endblock33-objxknx9" markerHeight="3" markerWidth="3" orient="auto" refX="1.5" refY="1.5" style="-webkit-tap-highlight-color:transparent"><use fill="#8DA1AC" stroke="none" stroke-width="1.667" transform="rotate(180 1.5 1.5) scale(0.6,0.6)" xlink:href="#raphael-marker-block" style="-webkit-tap-highlight-color:transparent"/></marker><marker id="raphael-marker-endblock33-obj2cnsb" markerHeight="3" markerWidth="3" orient="auto" refX="1.5" refY="1.5" style="-webkit-tap-highlight-color:transparent"><use fill="#8DA1AC" stroke="none" stroke-width="1.667" transform="rotate(180 1.5 1.5) scale(0.6,0.6)" xlink:href="#raphael-marker-block" style="-webkit-tap-highlight-color:transparent"/></marker><marker id="raphael-marker-endblock33-objh3ama" markerHeight="3" markerWidth="3" orient="auto" refX="1.5" refY="1.5" style="-webkit-tap-highlight-color:transparent"><use fill="#8DA1AC" stroke="none" stroke-width="1.667" transform="rotate(180 1.5 1.5) scale(0.6,0.6)" xlink:href="#raphael-marker-block" style="-webkit-tap-highlight-color:transparent"/></marker></defs><rect style="-webkit-tap-highlight-color:transparent" id="s" width="104" height="35.5" x="0" y="0" fill="#2f495f" stroke="#000" stroke-width="0" class="start-element" rx="20" ry="20" transform="matrix(1,0,0,1,16,2)"/><text id="st" x="10" y="17.75" fill="#fff" stroke="none" stroke-width="1" class="start-elementt" font-family="&quot;Arial&quot;" font-size="14" text-anchor="start" transform="matrix(1,0,0,1,16,2)" style="-webkit-tap-highlight-color:transparent;text-anchor:start;font-family:Arial;font-size:14px"><tspan dy="4.75" style="-webkit-tap-highlight-color:transparent">（响应中断）</tspan></text><rect style="-webkit-tap-highlight-color:transparent" id="op1" width="62" height="35.5" x="0" y="0" fill="#00bc7d" stroke="#000" stroke-width="0" class="operation-element" rx="0" ry="0" transform="matrix(1,0,0,1,37,89.5)"/><text id="op1t" x="10" y="17.75" fill="#fff" stroke="none" stroke-width="1" class="operation-elementt" font-family="&quot;Arial&quot;" font-size="14" text-anchor="start" transform="matrix(1,0,0,1,37,89.5)" style="-webkit-tap-highlight-color:transparent;text-anchor:start;font-family:Arial;font-size:14px"><tspan dy="4.75" style="-webkit-tap-highlight-color:transparent">关中断</tspan></text><rect style="-webkit-tap-highlight-color:transparent" id="op2" width="76" height="35.5" x="0" y="0" fill="#00bc7d" stroke="#000" stroke-width="0" class="operation-element" rx="0" ry="0" transform="matrix(1,0,0,1,30,177)"/><text id="op2t" x="10" y="17.75" fill="#fff" stroke="none" stroke-width="1" class="operation-elementt" font-family="&quot;Arial&quot;" font-size="14" text-anchor="start" transform="matrix(1,0,0,1,30,177)" style="-webkit-tap-highlight-color:transparent;text-anchor:start;font-family:Arial;font-size:14px"><tspan dy="4.75" style="-webkit-tap-highlight-color:transparent">保存断点</tspan></text><rect style="-webkit-tap-highlight-color:transparent" id="op3" width="132" height="35.5" x="0" y="0" fill="#00bc7d" stroke="#000" stroke-width="0" class="operation-element" rx="0" ry="0" transform="matrix(1,0,0,1,2,264.5)"/><text id="op3t" x="10" y="17.75" fill="#fff" stroke="none" stroke-width="1" class="operation-elementt" font-family="&quot;Arial&quot;" font-size="14" text-anchor="start" transform="matrix(1,0,0,1,2,264.5)" style="-webkit-tap-highlight-color:transparent;text-anchor:start;font-family:Arial;font-size:14px"><tspan dy="4.75" style="-webkit-tap-highlight-color:transparent">中断服务程序寻址</tspan></text><rect style="-webkit-tap-highlight-color:transparent" id="op4" width="132" height="35.5" x="0" y="0" fill="#00bc7d" stroke="#000" stroke-width="0" class="operation-element" rx="0" ry="0" transform="matrix(1,0,0,1,2,352)"/><text id="op4t" x="10" y="17.75" fill="#fff" stroke="none" stroke-width="1" class="operation-elementt" font-family="&quot;Arial&quot;" font-size="14" text-anchor="start" transform="matrix(1,0,0,1,2,352)" style="-webkit-tap-highlight-color:transparent;text-anchor:start;font-family:Arial;font-size:14px"><tspan dy="4.75" style="-webkit-tap-highlight-color:transparent">保护现场和屏蔽字</tspan></text><rect style="-webkit-tap-highlight-color:transparent" id="op5" width="62" height="35.5" x="0" y="0" fill="#00bc7d" stroke="#000" stroke-width="0" class="operation-element" rx="0" ry="0" transform="matrix(1,0,0,1,37,439.5)"/><text id="op5t" x="10" y="17.75" fill="#fff" stroke="none" stroke-width="1" class="operation-elementt" font-family="&quot;Arial&quot;" font-size="14" text-anchor="start" transform="matrix(1,0,0,1,37,439.5)" style="-webkit-tap-highlight-color:transparent;text-anchor:start;font-family:Arial;font-size:14px"><tspan dy="4.75" style="-webkit-tap-highlight-color:transparent">开中断</tspan></text><rect style="-webkit-tap-highlight-color:transparent" id="op6" width="132" height="35.5" x="0" y="0" fill="#00bc7d" stroke="#000" stroke-width="0" class="operation-element" rx="0" ry="0" transform="matrix(1,0,0,1,2,527)"/><text id="op6t" x="10" y="17.75" fill="#fff" stroke="none" stroke-width="1" class="operation-elementt" font-family="&quot;Arial&quot;" font-size="14" text-anchor="start" transform="matrix(1,0,0,1,2,527)" style="-webkit-tap-highlight-color:transparent;text-anchor:start;font-family:Arial;font-size:14px"><tspan dy="4.75" style="-webkit-tap-highlight-color:transparent">执行中断服务程序</tspan></text><rect style="-webkit-tap-highlight-color:transparent" id="op7" width="62" height="35.5" x="0" y="0" fill="#00bc7d" stroke="#000" stroke-width="0" class="operation-element" rx="0" ry="0" transform="matrix(1,0,0,1,37,614.5)"/><text id="op7t" x="10" y="17.75" fill="#fff" stroke="none" stroke-width="1" class="operation-elementt" font-family="&quot;Arial&quot;" font-size="14" text-anchor="start" transform="matrix(1,0,0,1,37,614.5)" style="-webkit-tap-highlight-color:transparent;text-anchor:start;font-family:Arial;font-size:14px"><tspan dy="4.75" style="-webkit-tap-highlight-color:transparent">关中断</tspan></text><rect style="-webkit-tap-highlight-color:transparent" id="op8" width="132" height="35.5" x="0" y="0" fill="#00bc7d" stroke="#000" stroke-width="0" class="operation-element" rx="0" ry="0" transform="matrix(1,0,0,1,2,702)"/><text id="op8t" x="10" y="17.75" fill="#fff" stroke="none" stroke-width="1" class="operation-elementt" font-family="&quot;Arial&quot;" font-size="14" text-anchor="start" transform="matrix(1,0,0,1,2,702)" style="-webkit-tap-highlight-color:transparent;text-anchor:start;font-family:Arial;font-size:14px"><tspan dy="4.75" style="-webkit-tap-highlight-color:transparent">恢复现场和屏蔽字</tspan></text><rect style="-webkit-tap-highlight-color:transparent" id="op9" width="62" height="35.5" x="0" y="0" fill="#00bc7d" stroke="#000" stroke-width="0" class="operation-element" rx="0" ry="0" transform="matrix(1,0,0,1,37,789.5)"/><text id="op9t" x="10" y="17.75" fill="#fff" stroke="none" stroke-width="1" class="operation-elementt" font-family="&quot;Arial&quot;" font-size="14" text-anchor="start" transform="matrix(1,0,0,1,37,789.5)" style="-webkit-tap-highlight-color:transparent;text-anchor:start;font-family:Arial;font-size:14px"><tspan dy="4.75" style="-webkit-tap-highlight-color:transparent">开中断</tspan></text><rect style="-webkit-tap-highlight-color:transparent" id="op10" width="76" height="35.5" x="0" y="0" fill="#00bc7d" stroke="#000" stroke-width="0" class="operation-element" rx="0" ry="0" transform="matrix(1,0,0,1,30,877)"/><text id="op10t" x="10" y="17.75" fill="#fff" stroke="none" stroke-width="1" class="operation-elementt" font-family="&quot;Arial&quot;" font-size="14" text-anchor="start" transform="matrix(1,0,0,1,30,877)" style="-webkit-tap-highlight-color:transparent;text-anchor:start;font-family:Arial;font-size:14px"><tspan dy="4.75" style="-webkit-tap-highlight-color:transparent">中断返回</tspan></text><rect style="-webkit-tap-highlight-color:transparent" id="e" width="104" height="35.5" x="0" y="0" fill="#2f495f" stroke="#000" stroke-width="0" class="end-element" rx="20" ry="20" transform="matrix(1,0,0,1,16,964.5)"/><text id="et" x="10" y="17.75" fill="#fff" stroke="none" stroke-width="1" class="end-elementt" font-family="&quot;Arial&quot;" font-size="14" text-anchor="start" transform="matrix(1,0,0,1,16,964.5)" style="-webkit-tap-highlight-color:transparent;text-anchor:start;font-family:Arial;font-size:14px"><tspan dy="4.75" style="-webkit-tap-highlight-color:transparent">（结束中断）</tspan></text><path fill="none" stroke="#8da1ac" stroke-width="2" marker-end="url(#raphael-marker-endblock33-objtvryv)" d="M68,37.5C68,37.5,68,75.42477893829346,68,86.49851810093969" style="-webkit-tap-highlight-color:transparent"/><path fill="none" stroke="#8da1ac" stroke-width="2" marker-end="url(#raphael-marker-endblock33-obj03ki8)" d="M68,125C68,125,68,162.92477893829346,68,173.9985181009397" style="-webkit-tap-highlight-color:transparent"/><path fill="none" stroke="#8da1ac" stroke-width="2" marker-end="url(#raphael-marker-endblock33-obj6y5q8)" d="M68,212.5C68,212.5,68,250.42477893829346,68,261.4985181009397" style="-webkit-tap-highlight-color:transparent"/><path fill="none" stroke="#8da1ac" stroke-width="2" marker-end="url(#raphael-marker-endblock33-objuh6wd)" d="M68,300C68,300,68,337.92477893829346,68,348.9985181009397" style="-webkit-tap-highlight-color:transparent"/><path fill="none" stroke="#8da1ac" stroke-width="2" marker-end="url(#raphael-marker-endblock33-objw9t1g)" d="M68,387.5C68,387.5,68,425.42477893829346,68,436.4985181009397" style="-webkit-tap-highlight-color:transparent"/><path fill="none" stroke="#8da1ac" stroke-width="2" marker-end="url(#raphael-marker-endblock33-objkhn0d)" d="M68,475C68,475,68,512.9247789382935,68,523.9985181009397" style="-webkit-tap-highlight-color:transparent"/><path fill="none" stroke="#8da1ac" stroke-width="2" marker-end="url(#raphael-marker-endblock33-objhgby9)" d="M68,562.5C68,562.5,68,600.4247789382935,68,611.4985181009397" style="-webkit-tap-highlight-color:transparent"/><path fill="none" stroke="#8da1ac" stroke-width="2" marker-end="url(#raphael-marker-endblock33-obj7bmu4)" d="M68,650C68,650,68,687.9247789382935,68,698.9985181009397" style="-webkit-tap-highlight-color:transparent"/><path fill="none" stroke="#8da1ac" stroke-width="2" marker-end="url(#raphael-marker-endblock33-objxknx9)" d="M68,737.5C68,737.5,68,775.4247789382935,68,786.4985181009397" style="-webkit-tap-highlight-color:transparent"/><path fill="none" stroke="#8da1ac" stroke-width="2" marker-end="url(#raphael-marker-endblock33-obj2cnsb)" d="M68,825C68,825,68,862.9247789382935,68,873.9985181009397" style="-webkit-tap-highlight-color:transparent"/><path fill="none" stroke="#8da1ac" stroke-width="2" marker-end="url(#raphael-marker-endblock33-objh3ama)" d="M68,912.5C68,912.5,68,950.4247789382935,68,961.4985181009397" style="-webkit-tap-highlight-color:transparent"/></svg>